<svg width="1280" height="527" viewBox="0 0 1280 527" fill="none" xmlns="http://www.w3.org/2000/svg">
<mask id="mask0_33_11" style="mask-type:alpha" maskUnits="userSpaceOnUse" x="0" y="0" width="1280" height="527">
<rect width="1280" height="527" fill="#E3F3FF"/>
</mask>
<g mask="url(#mask0_33_11)">
<path opacity="0.2" d="M132.155 210.999L27.4495 150.547L-77.2558 210.999V331.902L27.4495 392.354L132.155 331.902V210.999Z" stroke="#3696DE" stroke-width="20"/>
<path opacity="0.1" d="M120.827 300.547L66.592 331.86V394.485L120.827 425.797L175.062 394.485V331.86L120.827 300.547ZM118.827 426.952L118.833 426.949C118.831 426.95 118.829 426.951 118.827 426.952Z" stroke="#3696DE" stroke-width="20"/>
<path opacity="0.1" d="M335.5 -54.6699C334.572 -55.2058 333.428 -55.2058 332.5 -54.6699L290.869 -30.634C289.94 -30.0981 289.369 -29.1077 289.369 -28.0359V20.0359C289.369 21.1077 289.94 22.0981 290.869 22.634L332.5 46.6699C333.428 47.2058 334.572 47.2058 335.5 46.6699L377.131 22.634C378.06 22.0981 378.631 21.1077 378.631 20.0359V-28.0359C378.631 -29.1077 378.06 -30.0981 377.131 -30.634L335.5 -54.6699Z" stroke="#3696DE" stroke-width="6"/>
<path opacity="0.08" d="M509.844 320.33C508.916 319.794 507.773 319.794 506.844 320.33L434.902 361.866C433.974 362.402 433.402 363.392 433.402 364.464V447.536C433.402 448.608 433.974 449.598 434.902 450.134L506.844 491.67C507.773 492.206 508.916 492.206 509.844 491.67L581.787 450.134C582.715 449.598 583.287 448.608 583.287 447.536V364.464C583.287 363.392 582.715 362.402 581.787 361.866L509.844 320.33Z" stroke="#3696DE" stroke-width="6"/>
<path opacity="0.1" d="M759.5 90.1699C762.833 92.0944 762.833 96.9056 759.5 98.8301L499.25 249.086C495.917 251.01 491.75 248.604 491.75 244.755L491.75 -55.7554C491.75 -59.6044 495.917 -62.01 499.25 -60.0855L759.5 90.1699Z" fill="#3696DE"/>
<path opacity="0.15" d="M509.5 193.67C512.833 195.594 512.833 200.406 509.5 202.33L431.5 247.363C428.167 249.288 424 246.882 424 243.033L424 152.967C424 149.118 428.167 146.712 431.5 148.637L509.5 193.67Z" stroke="#3696DE" stroke-width="10"/>
<circle opacity="0.1" cx="999.5" cy="479.5" r="40.5" fill="#3696DE"/>
<circle opacity="0.25" cx="1049.5" cy="479.5" r="32" stroke="#3696DE" stroke-width="5"/>
</g>
</svg>
