<svg width="152" height="152" viewBox="0 0 152 152" fill="none" xmlns="http://www.w3.org/2000/svg">
<g opacity="0.15">
<path d="M40.0007 4C40.0007 6.20914 38.2099 8 36.0007 8C33.7916 8 32.0007 6.20914 32.0007 4C32.0007 1.79086 33.7916 0 36.0007 0C38.2099 0 40.0007 1.79086 40.0007 4Z" fill="white"/>
<path d="M56.0007 4C56.0007 6.20914 54.2099 8 52.0007 8C49.7916 8 48.0007 6.20914 48.0007 4C48.0007 1.79086 49.7916 0 52.0007 0C54.2099 0 56.0007 1.79086 56.0007 4Z" fill="white"/>
<path d="M72.0007 4C72.0007 6.20914 70.2099 8 68.0007 8C65.7916 8 64.0007 6.20914 64.0007 4C64.0007 1.79086 65.7916 0 68.0007 0C70.2099 0 72.0007 1.79086 72.0007 4Z" fill="white"/>
<path d="M88.0007 4C88.0007 6.20914 86.2099 8 84.0007 8C81.7916 8 80.0007 6.20914 80.0007 4C80.0007 1.79086 81.7916 0 84.0007 0C86.2099 0 88.0007 1.79086 88.0007 4Z" fill="white"/>
<path d="M104.001 4C104.001 6.20914 102.21 8 100.001 8C97.7916 8 96.0007 6.20914 96.0007 4C96.0007 1.79086 97.7916 0 100.001 0C102.21 0 104.001 1.79086 104.001 4Z" fill="white"/>
<path d="M120.001 4C120.001 6.20914 118.21 8 116.001 8C113.792 8 112.001 6.20914 112.001 4C112.001 1.79086 113.792 0 116.001 0C118.21 0 120.001 1.79086 120.001 4Z" fill="white"/>
<path d="M136.001 4C136.001 6.20914 134.21 8 132.001 8C129.792 8 128.001 6.20914 128.001 4C128.001 1.79086 129.792 0 132.001 0C134.21 0 136.001 1.79086 136.001 4Z" fill="white"/>
<path d="M40.0007 20C40.0007 22.2091 38.2099 24 36.0007 24C33.7916 24 32.0007 22.2091 32.0007 20C32.0007 17.7909 33.7916 16 36.0007 16C38.2099 16 40.0007 17.7909 40.0007 20Z" fill="white"/>
<path d="M56.0007 20C56.0007 22.2091 54.2099 24 52.0007 24C49.7916 24 48.0007 22.2091 48.0007 20C48.0007 17.7909 49.7916 16 52.0007 16C54.2099 16 56.0007 17.7909 56.0007 20Z" fill="white"/>
<path d="M72.0007 20C72.0007 22.2091 70.2099 24 68.0007 24C65.7916 24 64.0007 22.2091 64.0007 20C64.0007 17.7909 65.7916 16 68.0007 16C70.2099 16 72.0007 17.7909 72.0007 20Z" fill="white"/>
<path d="M88.0007 20C88.0007 22.2091 86.2099 24 84.0007 24C81.7916 24 80.0007 22.2091 80.0007 20C80.0007 17.7909 81.7916 16 84.0007 16C86.2099 16 88.0007 17.7909 88.0007 20Z" fill="white"/>
<path d="M104.001 20C104.001 22.2091 102.21 24 100.001 24C97.7916 24 96.0007 22.2091 96.0007 20C96.0007 17.7909 97.7916 16 100.001 16C102.21 16 104.001 17.7909 104.001 20Z" fill="white"/>
<path d="M120.001 20C120.001 22.2091 118.21 24 116.001 24C113.792 24 112.001 22.2091 112.001 20C112.001 17.7909 113.792 16 116.001 16C118.21 16 120.001 17.7909 120.001 20Z" fill="white"/>
<path d="M136.001 20C136.001 22.2091 134.21 24 132.001 24C129.792 24 128.001 22.2091 128.001 20C128.001 17.7909 129.792 16 132.001 16C134.21 16 136.001 17.7909 136.001 20Z" fill="white"/>
<path d="M152.001 20C152.001 22.2091 150.21 24 148.001 24C145.792 24 144.001 22.2091 144.001 20C144.001 17.7909 145.792 16 148.001 16C150.21 16 152.001 17.7909 152.001 20Z" fill="white"/>
<path d="M8.00073 36C8.00073 38.2091 6.20987 40 4.00073 40C1.79159 40 0.000732422 38.2091 0.000732422 36C0.000732422 33.7909 1.79159 32 4.00073 32C6.20987 32 8.00073 33.7909 8.00073 36Z" fill="white"/>
<path d="M24.0007 36C24.0007 38.2091 22.2099 40 20.0007 40C17.7916 40 16.0007 38.2091 16.0007 36C16.0007 33.7909 17.7916 32 20.0007 32C22.2099 32 24.0007 33.7909 24.0007 36Z" fill="white"/>
<path d="M40.0007 36C40.0007 38.2091 38.2099 40 36.0007 40C33.7916 40 32.0007 38.2091 32.0007 36C32.0007 33.7909 33.7916 32 36.0007 32C38.2099 32 40.0007 33.7909 40.0007 36Z" fill="white"/>
<path d="M56.0007 36C56.0007 38.2091 54.2099 40 52.0007 40C49.7916 40 48.0007 38.2091 48.0007 36C48.0007 33.7909 49.7916 32 52.0007 32C54.2099 32 56.0007 33.7909 56.0007 36Z" fill="white"/>
<path d="M72.0007 36C72.0007 38.2091 70.2099 40 68.0007 40C65.7916 40 64.0007 38.2091 64.0007 36C64.0007 33.7909 65.7916 32 68.0007 32C70.2099 32 72.0007 33.7909 72.0007 36Z" fill="white"/>
<path d="M88.0007 36C88.0007 38.2091 86.2099 40 84.0007 40C81.7916 40 80.0007 38.2091 80.0007 36C80.0007 33.7909 81.7916 32 84.0007 32C86.2099 32 88.0007 33.7909 88.0007 36Z" fill="white"/>
<path d="M104.001 36C104.001 38.2091 102.21 40 100.001 40C97.7916 40 96.0007 38.2091 96.0007 36C96.0007 33.7909 97.7916 32 100.001 32C102.21 32 104.001 33.7909 104.001 36Z" fill="white"/>
<path d="M120.001 36C120.001 38.2091 118.21 40 116.001 40C113.792 40 112.001 38.2091 112.001 36C112.001 33.7909 113.792 32 116.001 32C118.21 32 120.001 33.7909 120.001 36Z" fill="white"/>
<path d="M136.001 36C136.001 38.2091 134.21 40 132.001 40C129.792 40 128.001 38.2091 128.001 36C128.001 33.7909 129.792 32 132.001 32C134.21 32 136.001 33.7909 136.001 36Z" fill="white"/>
<path d="M152.001 36C152.001 38.2091 150.21 40 148.001 40C145.792 40 144.001 38.2091 144.001 36C144.001 33.7909 145.792 32 148.001 32C150.21 32 152.001 33.7909 152.001 36Z" fill="white"/>
<path d="M8.00073 52C8.00073 54.2091 6.20987 56 4.00073 56C1.79159 56 0.000732422 54.2091 0.000732422 52C0.000732422 49.7909 1.79159 48 4.00073 48C6.20987 48 8.00073 49.7909 8.00073 52Z" fill="white"/>
<path d="M24.0007 52C24.0007 54.2091 22.2099 56 20.0007 56C17.7916 56 16.0007 54.2091 16.0007 52C16.0007 49.7909 17.7916 48 20.0007 48C22.2099 48 24.0007 49.7909 24.0007 52Z" fill="white"/>
<path d="M40.0007 52C40.0007 54.2091 38.2099 56 36.0007 56C33.7916 56 32.0007 54.2091 32.0007 52C32.0007 49.7909 33.7916 48 36.0007 48C38.2099 48 40.0007 49.7909 40.0007 52Z" fill="white"/>
<path d="M56.0007 52C56.0007 54.2091 54.2099 56 52.0007 56C49.7916 56 48.0007 54.2091 48.0007 52C48.0007 49.7909 49.7916 48 52.0007 48C54.2099 48 56.0007 49.7909 56.0007 52Z" fill="white"/>
<path d="M72.0007 52C72.0007 54.2091 70.2099 56 68.0007 56C65.7916 56 64.0007 54.2091 64.0007 52C64.0007 49.7909 65.7916 48 68.0007 48C70.2099 48 72.0007 49.7909 72.0007 52Z" fill="white"/>
<path d="M88.0007 52C88.0007 54.2091 86.2099 56 84.0007 56C81.7916 56 80.0007 54.2091 80.0007 52C80.0007 49.7909 81.7916 48 84.0007 48C86.2099 48 88.0007 49.7909 88.0007 52Z" fill="white"/>
<path d="M104.001 52C104.001 54.2091 102.21 56 100.001 56C97.7916 56 96.0007 54.2091 96.0007 52C96.0007 49.7909 97.7916 48 100.001 48C102.21 48 104.001 49.7909 104.001 52Z" fill="white"/>
<path d="M120.001 52C120.001 54.2091 118.21 56 116.001 56C113.792 56 112.001 54.2091 112.001 52C112.001 49.7909 113.792 48 116.001 48C118.21 48 120.001 49.7909 120.001 52Z" fill="white"/>
<path d="M136.001 52C136.001 54.2091 134.21 56 132.001 56C129.792 56 128.001 54.2091 128.001 52C128.001 49.7909 129.792 48 132.001 48C134.21 48 136.001 49.7909 136.001 52Z" fill="white"/>
<path d="M152.001 52C152.001 54.2091 150.21 56 148.001 56C145.792 56 144.001 54.2091 144.001 52C144.001 49.7909 145.792 48 148.001 48C150.21 48 152.001 49.7909 152.001 52Z" fill="white"/>
<path d="M8.00073 68C8.00073 70.2091 6.20987 72 4.00073 72C1.79159 72 0.000732422 70.2091 0.000732422 68C0.000732422 65.7909 1.79159 64 4.00073 64C6.20987 64 8.00073 65.7909 8.00073 68Z" fill="white"/>
<path d="M24.0007 68C24.0007 70.2091 22.2099 72 20.0007 72C17.7916 72 16.0007 70.2091 16.0007 68C16.0007 65.7909 17.7916 64 20.0007 64C22.2099 64 24.0007 65.7909 24.0007 68Z" fill="white"/>
<path d="M40.0007 68C40.0007 70.2091 38.2099 72 36.0007 72C33.7916 72 32.0007 70.2091 32.0007 68C32.0007 65.7909 33.7916 64 36.0007 64C38.2099 64 40.0007 65.7909 40.0007 68Z" fill="white"/>
<path d="M56.0007 68C56.0007 70.2091 54.2099 72 52.0007 72C49.7916 72 48.0007 70.2091 48.0007 68C48.0007 65.7909 49.7916 64 52.0007 64C54.2099 64 56.0007 65.7909 56.0007 68Z" fill="white"/>
<path d="M72.0007 68C72.0007 70.2091 70.2099 72 68.0007 72C65.7916 72 64.0007 70.2091 64.0007 68C64.0007 65.7909 65.7916 64 68.0007 64C70.2099 64 72.0007 65.7909 72.0007 68Z" fill="white"/>
<path d="M88.0007 68C88.0007 70.2091 86.2099 72 84.0007 72C81.7916 72 80.0007 70.2091 80.0007 68C80.0007 65.7909 81.7916 64 84.0007 64C86.2099 64 88.0007 65.7909 88.0007 68Z" fill="white"/>
<path d="M104.001 68C104.001 70.2091 102.21 72 100.001 72C97.7916 72 96.0007 70.2091 96.0007 68C96.0007 65.7909 97.7916 64 100.001 64C102.21 64 104.001 65.7909 104.001 68Z" fill="white"/>
<path d="M120.001 68C120.001 70.2091 118.21 72 116.001 72C113.792 72 112.001 70.2091 112.001 68C112.001 65.7909 113.792 64 116.001 64C118.21 64 120.001 65.7909 120.001 68Z" fill="white"/>
<path d="M136.001 68C136.001 70.2091 134.21 72 132.001 72C129.792 72 128.001 70.2091 128.001 68C128.001 65.7909 129.792 64 132.001 64C134.21 64 136.001 65.7909 136.001 68Z" fill="white"/>
<path d="M152.001 68C152.001 70.2091 150.21 72 148.001 72C145.792 72 144.001 70.2091 144.001 68C144.001 65.7909 145.792 64 148.001 64C150.21 64 152.001 65.7909 152.001 68Z" fill="white"/>
<path d="M8.00073 84C8.00073 86.2091 6.20987 88 4.00073 88C1.79159 88 0.000732422 86.2091 0.000732422 84C0.000732422 81.7909 1.79159 80 4.00073 80C6.20987 80 8.00073 81.7909 8.00073 84Z" fill="white"/>
<path d="M24.0007 84C24.0007 86.2091 22.2099 88 20.0007 88C17.7916 88 16.0007 86.2091 16.0007 84C16.0007 81.7909 17.7916 80 20.0007 80C22.2099 80 24.0007 81.7909 24.0007 84Z" fill="white"/>
<path d="M40.0007 84C40.0007 86.2091 38.2099 88 36.0007 88C33.7916 88 32.0007 86.2091 32.0007 84C32.0007 81.7909 33.7916 80 36.0007 80C38.2099 80 40.0007 81.7909 40.0007 84Z" fill="white"/>
<path d="M56.0007 84C56.0007 86.2091 54.2099 88 52.0007 88C49.7916 88 48.0007 86.2091 48.0007 84C48.0007 81.7909 49.7916 80 52.0007 80C54.2099 80 56.0007 81.7909 56.0007 84Z" fill="white"/>
<path d="M72.0007 84C72.0007 86.2091 70.2099 88 68.0007 88C65.7916 88 64.0007 86.2091 64.0007 84C64.0007 81.7909 65.7916 80 68.0007 80C70.2099 80 72.0007 81.7909 72.0007 84Z" fill="white"/>
<path d="M88.0007 84C88.0007 86.2091 86.2099 88 84.0007 88C81.7916 88 80.0007 86.2091 80.0007 84C80.0007 81.7909 81.7916 80 84.0007 80C86.2099 80 88.0007 81.7909 88.0007 84Z" fill="white"/>
<path d="M104.001 84C104.001 86.2091 102.21 88 100.001 88C97.7916 88 96.0007 86.2091 96.0007 84C96.0007 81.7909 97.7916 80 100.001 80C102.21 80 104.001 81.7909 104.001 84Z" fill="white"/>
<path d="M120.001 84C120.001 86.2091 118.21 88 116.001 88C113.792 88 112.001 86.2091 112.001 84C112.001 81.7909 113.792 80 116.001 80C118.21 80 120.001 81.7909 120.001 84Z" fill="white"/>
<path d="M136.001 84C136.001 86.2091 134.21 88 132.001 88C129.792 88 128.001 86.2091 128.001 84C128.001 81.7909 129.792 80 132.001 80C134.21 80 136.001 81.7909 136.001 84Z" fill="white"/>
<path d="M152.001 84C152.001 86.2091 150.21 88 148.001 88C145.792 88 144.001 86.2091 144.001 84C144.001 81.7909 145.792 80 148.001 80C150.21 80 152.001 81.7909 152.001 84Z" fill="white"/>
<path d="M8.00073 100C8.00073 102.209 6.20987 104 4.00073 104C1.79159 104 0.000732422 102.209 0.000732422 100C0.000732422 97.7909 1.79159 96 4.00073 96C6.20987 96 8.00073 97.7909 8.00073 100Z" fill="white"/>
<path d="M24.0007 100C24.0007 102.209 22.2099 104 20.0007 104C17.7916 104 16.0007 102.209 16.0007 100C16.0007 97.7909 17.7916 96 20.0007 96C22.2099 96 24.0007 97.7909 24.0007 100Z" fill="white"/>
<path d="M40.0007 100C40.0007 102.209 38.2099 104 36.0007 104C33.7916 104 32.0007 102.209 32.0007 100C32.0007 97.7909 33.7916 96 36.0007 96C38.2099 96 40.0007 97.7909 40.0007 100Z" fill="white"/>
<path d="M56.0007 100C56.0007 102.209 54.2099 104 52.0007 104C49.7916 104 48.0007 102.209 48.0007 100C48.0007 97.7909 49.7916 96 52.0007 96C54.2099 96 56.0007 97.7909 56.0007 100Z" fill="white"/>
<path d="M72.0007 100C72.0007 102.209 70.2099 104 68.0007 104C65.7916 104 64.0007 102.209 64.0007 100C64.0007 97.7909 65.7916 96 68.0007 96C70.2099 96 72.0007 97.7909 72.0007 100Z" fill="white"/>
<path d="M88.0007 100C88.0007 102.209 86.2099 104 84.0007 104C81.7916 104 80.0007 102.209 80.0007 100C80.0007 97.7909 81.7916 96 84.0007 96C86.2099 96 88.0007 97.7909 88.0007 100Z" fill="white"/>
<path d="M104.001 100C104.001 102.209 102.21 104 100.001 104C97.7916 104 96.0007 102.209 96.0007 100C96.0007 97.7909 97.7916 96 100.001 96C102.21 96 104.001 97.7909 104.001 100Z" fill="white"/>
<path d="M120.001 100C120.001 102.209 118.21 104 116.001 104C113.792 104 112.001 102.209 112.001 100C112.001 97.7909 113.792 96 116.001 96C118.21 96 120.001 97.7909 120.001 100Z" fill="white"/>
<path d="M136.001 100C136.001 102.209 134.21 104 132.001 104C129.792 104 128.001 102.209 128.001 100C128.001 97.7909 129.792 96 132.001 96C134.21 96 136.001 97.7909 136.001 100Z" fill="white"/>
<path d="M152.001 100C152.001 102.209 150.21 104 148.001 104C145.792 104 144.001 102.209 144.001 100C144.001 97.7909 145.792 96 148.001 96C150.21 96 152.001 97.7909 152.001 100Z" fill="white"/>
<path d="M8.00073 116C8.00073 118.209 6.20987 120 4.00073 120C1.79159 120 0.000732422 118.209 0.000732422 116C0.000732422 113.791 1.79159 112 4.00073 112C6.20987 112 8.00073 113.791 8.00073 116Z" fill="white"/>
<path d="M24.0007 116C24.0007 118.209 22.2099 120 20.0007 120C17.7916 120 16.0007 118.209 16.0007 116C16.0007 113.791 17.7916 112 20.0007 112C22.2099 112 24.0007 113.791 24.0007 116Z" fill="white"/>
<path d="M88.0007 116C88.0007 118.209 86.2099 120 84.0007 120C81.7916 120 80.0007 118.209 80.0007 116C80.0007 113.791 81.7916 112 84.0007 112C86.2099 112 88.0007 113.791 88.0007 116Z" fill="white"/>
<path d="M104.001 116C104.001 118.209 102.21 120 100.001 120C97.7916 120 96.0007 118.209 96.0007 116C96.0007 113.791 97.7916 112 100.001 112C102.21 112 104.001 113.791 104.001 116Z" fill="white"/>
<path d="M120.001 116C120.001 118.209 118.21 120 116.001 120C113.792 120 112.001 118.209 112.001 116C112.001 113.791 113.792 112 116.001 112C118.21 112 120.001 113.791 120.001 116Z" fill="white"/>
<path d="M136.001 116C136.001 118.209 134.21 120 132.001 120C129.792 120 128.001 118.209 128.001 116C128.001 113.791 129.792 112 132.001 112C134.21 112 136.001 113.791 136.001 116Z" fill="white"/>
<path d="M152.001 116C152.001 118.209 150.21 120 148.001 120C145.792 120 144.001 118.209 144.001 116C144.001 113.791 145.792 112 148.001 112C150.21 112 152.001 113.791 152.001 116Z" fill="white"/>
<path d="M8.00073 132C8.00073 134.209 6.20987 136 4.00073 136C1.79159 136 0.000732422 134.209 0.000732422 132C0.000732422 129.791 1.79159 128 4.00073 128C6.20987 128 8.00073 129.791 8.00073 132Z" fill="white"/>
<path d="M24.0007 132C24.0007 134.209 22.2099 136 20.0007 136C17.7916 136 16.0007 134.209 16.0007 132C16.0007 129.791 17.7916 128 20.0007 128C22.2099 128 24.0007 129.791 24.0007 132Z" fill="white"/>
<path d="M88.0007 132C88.0007 134.209 86.2099 136 84.0007 136C81.7916 136 80.0007 134.209 80.0007 132C80.0007 129.791 81.7916 128 84.0007 128C86.2099 128 88.0007 129.791 88.0007 132Z" fill="white"/>
<path d="M104.001 132C104.001 134.209 102.21 136 100.001 136C97.7916 136 96.0007 134.209 96.0007 132C96.0007 129.791 97.7916 128 100.001 128C102.21 128 104.001 129.791 104.001 132Z" fill="white"/>
<path d="M120.001 132C120.001 134.209 118.21 136 116.001 136C113.792 136 112.001 134.209 112.001 132C112.001 129.791 113.792 128 116.001 128C118.21 128 120.001 129.791 120.001 132Z" fill="white"/>
<path d="M136.001 132C136.001 134.209 134.21 136 132.001 136C129.792 136 128.001 134.209 128.001 132C128.001 129.791 129.792 128 132.001 128C134.21 128 136.001 129.791 136.001 132Z" fill="white"/>
<path d="M152.001 132C152.001 134.209 150.21 136 148.001 136C145.792 136 144.001 134.209 144.001 132C144.001 129.791 145.792 128 148.001 128C150.21 128 152.001 129.791 152.001 132Z" fill="white"/>
<path d="M8.00073 148C8.00073 150.209 6.20987 152 4.00073 152C1.79159 152 0.000732422 150.209 0.000732422 148C0.000732422 145.791 1.79159 144 4.00073 144C6.20987 144 8.00073 145.791 8.00073 148Z" fill="white"/>
<path d="M24.0007 148C24.0007 150.209 22.2099 152 20.0007 152C17.7916 152 16.0007 150.209 16.0007 148C16.0007 145.791 17.7916 144 20.0007 144C22.2099 144 24.0007 145.791 24.0007 148Z" fill="white"/>
<path d="M88.0007 148C88.0007 150.209 86.2099 152 84.0007 152C81.7916 152 80.0007 150.209 80.0007 148C80.0007 145.791 81.7916 144 84.0007 144C86.2099 144 88.0007 145.791 88.0007 148Z" fill="white"/>
<path d="M104.001 148C104.001 150.209 102.21 152 100.001 152C97.7916 152 96.0007 150.209 96.0007 148C96.0007 145.791 97.7916 144 100.001 144C102.21 144 104.001 145.791 104.001 148Z" fill="white"/>
<path d="M120.001 148C120.001 150.209 118.21 152 116.001 152C113.792 152 112.001 150.209 112.001 148C112.001 145.791 113.792 144 116.001 144C118.21 144 120.001 145.791 120.001 148Z" fill="white"/>
<path d="M136.001 148C136.001 150.209 134.21 152 132.001 152C129.792 152 128.001 150.209 128.001 148C128.001 145.791 129.792 144 132.001 144C134.21 144 136.001 145.791 136.001 148Z" fill="white"/>
<path d="M152.001 148C152.001 150.209 150.21 152 148.001 152C145.792 152 144.001 150.209 144.001 148C144.001 145.791 145.792 144 148.001 144C150.21 144 152.001 145.791 152.001 148Z" fill="white"/>
</g>
</svg>
