<svg width="1280" height="936" viewBox="0 0 1280 936" fill="none" xmlns="http://www.w3.org/2000/svg">
<g clip-path="url(#clip0_26_7)">
<path d="M1280 0H880.001V936H1280V0Z" fill="#3696DE"/>
<g opacity="0.15">
<path d="M1050.89 78.2895C1050.89 80.1061 1049.42 81.5789 1047.6 81.5789C1045.79 81.5789 1044.31 80.1061 1044.31 78.2895C1044.31 76.4729 1045.79 75 1047.6 75C1049.42 75 1050.89 76.4729 1050.89 78.2895Z" fill="white"/>
<path d="M1064.05 78.2895C1064.05 80.1061 1062.58 81.5789 1060.76 81.5789C1058.94 81.5789 1057.47 80.1061 1057.47 78.2895C1057.47 76.4729 1058.94 75 1060.76 75C1062.58 75 1064.05 76.4729 1064.05 78.2895Z" fill="white"/>
<path d="M1077.21 78.2895C1077.21 80.1061 1075.74 81.5789 1073.92 81.5789C1072.1 81.5789 1070.63 80.1061 1070.63 78.2895C1070.63 76.4729 1072.1 75 1073.92 75C1075.74 75 1077.21 76.4729 1077.21 78.2895Z" fill="white"/>
<path d="M1090.37 78.2895C1090.37 80.1061 1088.9 81.5789 1087.08 81.5789C1085.26 81.5789 1083.79 80.1061 1083.79 78.2895C1083.79 76.4729 1085.26 75 1087.08 75C1088.9 75 1090.37 76.4729 1090.37 78.2895Z" fill="white"/>
<path d="M1103.53 78.2895C1103.53 80.1061 1102.05 81.5789 1100.24 81.5789C1098.42 81.5789 1096.95 80.1061 1096.95 78.2895C1096.95 76.4729 1098.42 75 1100.24 75C1102.05 75 1103.53 76.4729 1103.53 78.2895Z" fill="white"/>
<path d="M1116.68 78.2895C1116.68 80.1061 1115.21 81.5789 1113.39 81.5789C1111.58 81.5789 1110.1 80.1061 1110.1 78.2895C1110.1 76.4729 1111.58 75 1113.39 75C1115.21 75 1116.68 76.4729 1116.68 78.2895Z" fill="white"/>
<path d="M1129.84 78.2895C1129.84 80.1061 1128.37 81.5789 1126.55 81.5789C1124.73 81.5789 1123.26 80.1061 1123.26 78.2895C1123.26 76.4729 1124.73 75 1126.55 75C1128.37 75 1129.84 76.4729 1129.84 78.2895Z" fill="white"/>
<path d="M1050.89 91.4473C1050.89 93.2639 1049.42 94.7368 1047.6 94.7368C1045.79 94.7368 1044.31 93.2639 1044.31 91.4473C1044.31 89.6307 1045.79 88.1579 1047.6 88.1579C1049.42 88.1579 1050.89 89.6307 1050.89 91.4473Z" fill="white"/>
<path d="M1064.05 91.4473C1064.05 93.2639 1062.58 94.7368 1060.76 94.7368C1058.94 94.7368 1057.47 93.2639 1057.47 91.4473C1057.47 89.6307 1058.94 88.1579 1060.76 88.1579C1062.58 88.1579 1064.05 89.6307 1064.05 91.4473Z" fill="white"/>
<path d="M1077.21 91.4473C1077.21 93.2639 1075.74 94.7368 1073.92 94.7368C1072.1 94.7368 1070.63 93.2639 1070.63 91.4473C1070.63 89.6307 1072.1 88.1579 1073.92 88.1579C1075.74 88.1579 1077.21 89.6307 1077.21 91.4473Z" fill="white"/>
<path d="M1090.37 91.4473C1090.37 93.2639 1088.9 94.7368 1087.08 94.7368C1085.26 94.7368 1083.79 93.2639 1083.79 91.4473C1083.79 89.6307 1085.26 88.1579 1087.08 88.1579C1088.9 88.1579 1090.37 89.6307 1090.37 91.4473Z" fill="white"/>
<path d="M1103.53 91.4473C1103.53 93.2639 1102.05 94.7368 1100.24 94.7368C1098.42 94.7368 1096.95 93.2639 1096.95 91.4473C1096.95 89.6307 1098.42 88.1579 1100.24 88.1579C1102.05 88.1579 1103.53 89.6307 1103.53 91.4473Z" fill="white"/>
<path d="M1116.68 91.4473C1116.68 93.2639 1115.21 94.7368 1113.39 94.7368C1111.58 94.7368 1110.1 93.2639 1110.1 91.4473C1110.1 89.6307 1111.58 88.1579 1113.39 88.1579C1115.21 88.1579 1116.68 89.6307 1116.68 91.4473Z" fill="white"/>
<path d="M1129.84 91.4473C1129.84 93.2639 1128.37 94.7368 1126.55 94.7368C1124.73 94.7368 1123.26 93.2639 1123.26 91.4473C1123.26 89.6307 1124.73 88.1579 1126.55 88.1579C1128.37 88.1579 1129.84 89.6307 1129.84 91.4473Z" fill="white"/>
<path d="M1143 91.4473C1143 93.2639 1141.53 94.7368 1139.71 94.7368C1137.89 94.7368 1136.42 93.2639 1136.42 91.4473C1136.42 89.6307 1137.89 88.1579 1139.71 88.1579C1141.53 88.1579 1143 89.6307 1143 91.4473Z" fill="white"/>
<path d="M1024.58 104.605C1024.58 106.422 1023.11 107.895 1021.29 107.895C1019.47 107.895 1018 106.422 1018 104.605C1018 102.789 1019.47 101.316 1021.29 101.316C1023.11 101.316 1024.58 102.789 1024.58 104.605Z" fill="white"/>
<path d="M1037.74 104.605C1037.74 106.422 1036.26 107.895 1034.45 107.895C1032.63 107.895 1031.16 106.422 1031.16 104.605C1031.16 102.789 1032.63 101.316 1034.45 101.316C1036.26 101.316 1037.74 102.789 1037.74 104.605Z" fill="white"/>
<path d="M1050.89 104.605C1050.89 106.422 1049.42 107.895 1047.6 107.895C1045.79 107.895 1044.31 106.422 1044.31 104.605C1044.31 102.789 1045.79 101.316 1047.6 101.316C1049.42 101.316 1050.89 102.789 1050.89 104.605Z" fill="white"/>
<path d="M1064.05 104.605C1064.05 106.422 1062.58 107.895 1060.76 107.895C1058.94 107.895 1057.47 106.422 1057.47 104.605C1057.47 102.789 1058.94 101.316 1060.76 101.316C1062.58 101.316 1064.05 102.789 1064.05 104.605Z" fill="white"/>
<path d="M1077.21 104.605C1077.21 106.422 1075.74 107.895 1073.92 107.895C1072.1 107.895 1070.63 106.422 1070.63 104.605C1070.63 102.789 1072.1 101.316 1073.92 101.316C1075.74 101.316 1077.21 102.789 1077.21 104.605Z" fill="white"/>
<path d="M1090.37 104.605C1090.37 106.422 1088.9 107.895 1087.08 107.895C1085.26 107.895 1083.79 106.422 1083.79 104.605C1083.79 102.789 1085.26 101.316 1087.08 101.316C1088.9 101.316 1090.37 102.789 1090.37 104.605Z" fill="white"/>
<path d="M1103.53 104.605C1103.53 106.422 1102.05 107.895 1100.24 107.895C1098.42 107.895 1096.95 106.422 1096.95 104.605C1096.95 102.789 1098.42 101.316 1100.24 101.316C1102.05 101.316 1103.53 102.789 1103.53 104.605Z" fill="white"/>
<path d="M1116.68 104.605C1116.68 106.422 1115.21 107.895 1113.39 107.895C1111.58 107.895 1110.1 106.422 1110.1 104.605C1110.1 102.789 1111.58 101.316 1113.39 101.316C1115.21 101.316 1116.68 102.789 1116.68 104.605Z" fill="white"/>
<path d="M1129.84 104.605C1129.84 106.422 1128.37 107.895 1126.55 107.895C1124.73 107.895 1123.26 106.422 1123.26 104.605C1123.26 102.789 1124.73 101.316 1126.55 101.316C1128.37 101.316 1129.84 102.789 1129.84 104.605Z" fill="white"/>
<path d="M1143 104.605C1143 106.422 1141.53 107.895 1139.71 107.895C1137.89 107.895 1136.42 106.422 1136.42 104.605C1136.42 102.789 1137.89 101.316 1139.71 101.316C1141.53 101.316 1143 102.789 1143 104.605Z" fill="white"/>
<path d="M1024.58 117.763C1024.58 119.58 1023.11 121.053 1021.29 121.053C1019.47 121.053 1018 119.58 1018 117.763C1018 115.946 1019.47 114.474 1021.29 114.474C1023.11 114.474 1024.58 115.946 1024.58 117.763Z" fill="white"/>
<path d="M1037.74 117.763C1037.74 119.58 1036.26 121.053 1034.45 121.053C1032.63 121.053 1031.16 119.58 1031.16 117.763C1031.16 115.946 1032.63 114.474 1034.45 114.474C1036.26 114.474 1037.74 115.946 1037.74 117.763Z" fill="white"/>
<path d="M1050.89 117.763C1050.89 119.58 1049.42 121.053 1047.6 121.053C1045.79 121.053 1044.31 119.58 1044.31 117.763C1044.31 115.946 1045.79 114.474 1047.6 114.474C1049.42 114.474 1050.89 115.946 1050.89 117.763Z" fill="white"/>
<path d="M1064.05 117.763C1064.05 119.58 1062.58 121.053 1060.76 121.053C1058.94 121.053 1057.47 119.58 1057.47 117.763C1057.47 115.946 1058.94 114.474 1060.76 114.474C1062.58 114.474 1064.05 115.946 1064.05 117.763Z" fill="white"/>
<path d="M1077.21 117.763C1077.21 119.58 1075.74 121.053 1073.92 121.053C1072.1 121.053 1070.63 119.58 1070.63 117.763C1070.63 115.946 1072.1 114.474 1073.92 114.474C1075.74 114.474 1077.21 115.946 1077.21 117.763Z" fill="white"/>
<path d="M1090.37 117.763C1090.37 119.58 1088.9 121.053 1087.08 121.053C1085.26 121.053 1083.79 119.58 1083.79 117.763C1083.79 115.946 1085.26 114.474 1087.08 114.474C1088.9 114.474 1090.37 115.946 1090.37 117.763Z" fill="white"/>
<path d="M1103.53 117.763C1103.53 119.58 1102.05 121.053 1100.24 121.053C1098.42 121.053 1096.95 119.58 1096.95 117.763C1096.95 115.946 1098.42 114.474 1100.24 114.474C1102.05 114.474 1103.53 115.946 1103.53 117.763Z" fill="white"/>
<path d="M1116.68 117.763C1116.68 119.58 1115.21 121.053 1113.39 121.053C1111.58 121.053 1110.1 119.58 1110.1 117.763C1110.1 115.946 1111.58 114.474 1113.39 114.474C1115.21 114.474 1116.68 115.946 1116.68 117.763Z" fill="white"/>
<path d="M1129.84 117.763C1129.84 119.58 1128.37 121.053 1126.55 121.053C1124.73 121.053 1123.26 119.58 1123.26 117.763C1123.26 115.946 1124.73 114.474 1126.55 114.474C1128.37 114.474 1129.84 115.946 1129.84 117.763Z" fill="white"/>
<path d="M1143 117.763C1143 119.58 1141.53 121.053 1139.71 121.053C1137.89 121.053 1136.42 119.58 1136.42 117.763C1136.42 115.946 1137.89 114.474 1139.71 114.474C1141.53 114.474 1143 115.946 1143 117.763Z" fill="white"/>
<path d="M1024.58 130.921C1024.58 132.738 1023.11 134.21 1021.29 134.21C1019.47 134.21 1018 132.738 1018 130.921C1018 129.104 1019.47 127.632 1021.29 127.632C1023.11 127.632 1024.58 129.104 1024.58 130.921Z" fill="white"/>
<path d="M1037.74 130.921C1037.74 132.738 1036.26 134.21 1034.45 134.21C1032.63 134.21 1031.16 132.738 1031.16 130.921C1031.16 129.104 1032.63 127.632 1034.45 127.632C1036.26 127.632 1037.74 129.104 1037.74 130.921Z" fill="white"/>
<path d="M1050.89 130.921C1050.89 132.738 1049.42 134.21 1047.6 134.21C1045.79 134.21 1044.31 132.738 1044.31 130.921C1044.31 129.104 1045.79 127.632 1047.6 127.632C1049.42 127.632 1050.89 129.104 1050.89 130.921Z" fill="white"/>
<path d="M1064.05 130.921C1064.05 132.738 1062.58 134.21 1060.76 134.21C1058.94 134.21 1057.47 132.738 1057.47 130.921C1057.47 129.104 1058.94 127.632 1060.76 127.632C1062.58 127.632 1064.05 129.104 1064.05 130.921Z" fill="white"/>
<path d="M1077.21 130.921C1077.21 132.738 1075.74 134.21 1073.92 134.21C1072.1 134.21 1070.63 132.738 1070.63 130.921C1070.63 129.104 1072.1 127.632 1073.92 127.632C1075.74 127.632 1077.21 129.104 1077.21 130.921Z" fill="white"/>
<path d="M1090.37 130.921C1090.37 132.738 1088.9 134.21 1087.08 134.21C1085.26 134.21 1083.79 132.738 1083.79 130.921C1083.79 129.104 1085.26 127.632 1087.08 127.632C1088.9 127.632 1090.37 129.104 1090.37 130.921Z" fill="white"/>
<path d="M1103.53 130.921C1103.53 132.738 1102.05 134.21 1100.24 134.21C1098.42 134.21 1096.95 132.738 1096.95 130.921C1096.95 129.104 1098.42 127.632 1100.24 127.632C1102.05 127.632 1103.53 129.104 1103.53 130.921Z" fill="white"/>
<path d="M1116.68 130.921C1116.68 132.738 1115.21 134.21 1113.39 134.21C1111.58 134.21 1110.1 132.738 1110.1 130.921C1110.1 129.104 1111.58 127.632 1113.39 127.632C1115.21 127.632 1116.68 129.104 1116.68 130.921Z" fill="white"/>
<path d="M1129.84 130.921C1129.84 132.738 1128.37 134.21 1126.55 134.21C1124.73 134.21 1123.26 132.738 1123.26 130.921C1123.26 129.104 1124.73 127.632 1126.55 127.632C1128.37 127.632 1129.84 129.104 1129.84 130.921Z" fill="white"/>
<path d="M1143 130.921C1143 132.738 1141.53 134.21 1139.71 134.21C1137.89 134.21 1136.42 132.738 1136.42 130.921C1136.42 129.104 1137.89 127.632 1139.71 127.632C1141.53 127.632 1143 129.104 1143 130.921Z" fill="white"/>
<path d="M1024.58 144.079C1024.58 145.895 1023.11 147.368 1021.29 147.368C1019.47 147.368 1018 145.895 1018 144.079C1018 142.262 1019.47 140.789 1021.29 140.789C1023.11 140.789 1024.58 142.262 1024.58 144.079Z" fill="white"/>
<path d="M1037.74 144.079C1037.74 145.895 1036.26 147.368 1034.45 147.368C1032.63 147.368 1031.16 145.895 1031.16 144.079C1031.16 142.262 1032.63 140.789 1034.45 140.789C1036.26 140.789 1037.74 142.262 1037.74 144.079Z" fill="white"/>
<path d="M1050.89 144.079C1050.89 145.895 1049.42 147.368 1047.6 147.368C1045.79 147.368 1044.31 145.895 1044.31 144.079C1044.31 142.262 1045.79 140.789 1047.6 140.789C1049.42 140.789 1050.89 142.262 1050.89 144.079Z" fill="white"/>
<path d="M1064.05 144.079C1064.05 145.895 1062.58 147.368 1060.76 147.368C1058.94 147.368 1057.47 145.895 1057.47 144.079C1057.47 142.262 1058.94 140.789 1060.76 140.789C1062.58 140.789 1064.05 142.262 1064.05 144.079Z" fill="white"/>
<path d="M1077.21 144.079C1077.21 145.895 1075.74 147.368 1073.92 147.368C1072.1 147.368 1070.63 145.895 1070.63 144.079C1070.63 142.262 1072.1 140.789 1073.92 140.789C1075.74 140.789 1077.21 142.262 1077.21 144.079Z" fill="white"/>
<path d="M1090.37 144.079C1090.37 145.895 1088.9 147.368 1087.08 147.368C1085.26 147.368 1083.79 145.895 1083.79 144.079C1083.79 142.262 1085.26 140.789 1087.08 140.789C1088.9 140.789 1090.37 142.262 1090.37 144.079Z" fill="white"/>
<path d="M1103.53 144.079C1103.53 145.895 1102.05 147.368 1100.24 147.368C1098.42 147.368 1096.95 145.895 1096.95 144.079C1096.95 142.262 1098.42 140.789 1100.24 140.789C1102.05 140.789 1103.53 142.262 1103.53 144.079Z" fill="white"/>
<path d="M1116.68 144.079C1116.68 145.895 1115.21 147.368 1113.39 147.368C1111.58 147.368 1110.1 145.895 1110.1 144.079C1110.1 142.262 1111.58 140.789 1113.39 140.789C1115.21 140.789 1116.68 142.262 1116.68 144.079Z" fill="white"/>
<path d="M1129.84 144.079C1129.84 145.895 1128.37 147.368 1126.55 147.368C1124.73 147.368 1123.26 145.895 1123.26 144.079C1123.26 142.262 1124.73 140.789 1126.55 140.789C1128.37 140.789 1129.84 142.262 1129.84 144.079Z" fill="white"/>
<path d="M1143 144.079C1143 145.895 1141.53 147.368 1139.71 147.368C1137.89 147.368 1136.42 145.895 1136.42 144.079C1136.42 142.262 1137.89 140.789 1139.71 140.789C1141.53 140.789 1143 142.262 1143 144.079Z" fill="white"/>
<path d="M1024.58 157.237C1024.58 159.053 1023.11 160.526 1021.29 160.526C1019.47 160.526 1018 159.053 1018 157.237C1018 155.42 1019.47 153.947 1021.29 153.947C1023.11 153.947 1024.58 155.42 1024.58 157.237Z" fill="white"/>
<path d="M1037.74 157.237C1037.74 159.053 1036.26 160.526 1034.45 160.526C1032.63 160.526 1031.16 159.053 1031.16 157.237C1031.16 155.42 1032.63 153.947 1034.45 153.947C1036.26 153.947 1037.74 155.42 1037.74 157.237Z" fill="white"/>
<path d="M1050.89 157.237C1050.89 159.053 1049.42 160.526 1047.6 160.526C1045.79 160.526 1044.31 159.053 1044.31 157.237C1044.31 155.42 1045.79 153.947 1047.6 153.947C1049.42 153.947 1050.89 155.42 1050.89 157.237Z" fill="white"/>
<path d="M1064.05 157.237C1064.05 159.053 1062.58 160.526 1060.76 160.526C1058.94 160.526 1057.47 159.053 1057.47 157.237C1057.47 155.42 1058.94 153.947 1060.76 153.947C1062.58 153.947 1064.05 155.42 1064.05 157.237Z" fill="white"/>
<path d="M1077.21 157.237C1077.21 159.053 1075.74 160.526 1073.92 160.526C1072.1 160.526 1070.63 159.053 1070.63 157.237C1070.63 155.42 1072.1 153.947 1073.92 153.947C1075.74 153.947 1077.21 155.42 1077.21 157.237Z" fill="white"/>
<path d="M1090.37 157.237C1090.37 159.053 1088.9 160.526 1087.08 160.526C1085.26 160.526 1083.79 159.053 1083.79 157.237C1083.79 155.42 1085.26 153.947 1087.08 153.947C1088.9 153.947 1090.37 155.42 1090.37 157.237Z" fill="white"/>
<path d="M1103.53 157.237C1103.53 159.053 1102.05 160.526 1100.24 160.526C1098.42 160.526 1096.95 159.053 1096.95 157.237C1096.95 155.42 1098.42 153.947 1100.24 153.947C1102.05 153.947 1103.53 155.42 1103.53 157.237Z" fill="white"/>
<path d="M1116.68 157.237C1116.68 159.053 1115.21 160.526 1113.39 160.526C1111.58 160.526 1110.1 159.053 1110.1 157.237C1110.1 155.42 1111.58 153.947 1113.39 153.947C1115.21 153.947 1116.68 155.42 1116.68 157.237Z" fill="white"/>
<path d="M1129.84 157.237C1129.84 159.053 1128.37 160.526 1126.55 160.526C1124.73 160.526 1123.26 159.053 1123.26 157.237C1123.26 155.42 1124.73 153.947 1126.55 153.947C1128.37 153.947 1129.84 155.42 1129.84 157.237Z" fill="white"/>
<path d="M1143 157.237C1143 159.053 1141.53 160.526 1139.71 160.526C1137.89 160.526 1136.42 159.053 1136.42 157.237C1136.42 155.42 1137.89 153.947 1139.71 153.947C1141.53 153.947 1143 155.42 1143 157.237Z" fill="white"/>
<path d="M1024.58 170.395C1024.58 172.211 1023.11 173.684 1021.29 173.684C1019.47 173.684 1018 172.211 1018 170.395C1018 168.578 1019.47 167.105 1021.29 167.105C1023.11 167.105 1024.58 168.578 1024.58 170.395Z" fill="white"/>
<path d="M1037.74 170.395C1037.74 172.211 1036.26 173.684 1034.45 173.684C1032.63 173.684 1031.16 172.211 1031.16 170.395C1031.16 168.578 1032.63 167.105 1034.45 167.105C1036.26 167.105 1037.74 168.578 1037.74 170.395Z" fill="white"/>
<path d="M1090.37 170.395C1090.37 172.211 1088.9 173.684 1087.08 173.684C1085.26 173.684 1083.79 172.211 1083.79 170.395C1083.79 168.578 1085.26 167.105 1087.08 167.105C1088.9 167.105 1090.37 168.578 1090.37 170.395Z" fill="white"/>
<path d="M1103.53 170.395C1103.53 172.211 1102.05 173.684 1100.24 173.684C1098.42 173.684 1096.95 172.211 1096.95 170.395C1096.95 168.578 1098.42 167.105 1100.24 167.105C1102.05 167.105 1103.53 168.578 1103.53 170.395Z" fill="white"/>
<path d="M1116.68 170.395C1116.68 172.211 1115.21 173.684 1113.39 173.684C1111.58 173.684 1110.1 172.211 1110.1 170.395C1110.1 168.578 1111.58 167.105 1113.39 167.105C1115.21 167.105 1116.68 168.578 1116.68 170.395Z" fill="white"/>
<path d="M1129.84 170.395C1129.84 172.211 1128.37 173.684 1126.55 173.684C1124.73 173.684 1123.26 172.211 1123.26 170.395C1123.26 168.578 1124.73 167.105 1126.55 167.105C1128.37 167.105 1129.84 168.578 1129.84 170.395Z" fill="white"/>
<path d="M1143 170.395C1143 172.211 1141.53 173.684 1139.71 173.684C1137.89 173.684 1136.42 172.211 1136.42 170.395C1136.42 168.578 1137.89 167.105 1139.71 167.105C1141.53 167.105 1143 168.578 1143 170.395Z" fill="white"/>
<path d="M1024.58 183.552C1024.58 185.369 1023.11 186.842 1021.29 186.842C1019.47 186.842 1018 185.369 1018 183.552C1018 181.736 1019.47 180.263 1021.29 180.263C1023.11 180.263 1024.58 181.736 1024.58 183.552Z" fill="white"/>
<path d="M1037.74 183.552C1037.74 185.369 1036.26 186.842 1034.45 186.842C1032.63 186.842 1031.16 185.369 1031.16 183.552C1031.16 181.736 1032.63 180.263 1034.45 180.263C1036.26 180.263 1037.74 181.736 1037.74 183.552Z" fill="white"/>
<path d="M1090.37 183.552C1090.37 185.369 1088.9 186.842 1087.08 186.842C1085.26 186.842 1083.79 185.369 1083.79 183.552C1083.79 181.736 1085.26 180.263 1087.08 180.263C1088.9 180.263 1090.37 181.736 1090.37 183.552Z" fill="white"/>
<path d="M1103.53 183.552C1103.53 185.369 1102.05 186.842 1100.24 186.842C1098.42 186.842 1096.95 185.369 1096.95 183.552C1096.95 181.736 1098.42 180.263 1100.24 180.263C1102.05 180.263 1103.53 181.736 1103.53 183.552Z" fill="white"/>
<path d="M1116.68 183.552C1116.68 185.369 1115.21 186.842 1113.39 186.842C1111.58 186.842 1110.1 185.369 1110.1 183.552C1110.1 181.736 1111.58 180.263 1113.39 180.263C1115.21 180.263 1116.68 181.736 1116.68 183.552Z" fill="white"/>
<path d="M1129.84 183.552C1129.84 185.369 1128.37 186.842 1126.55 186.842C1124.73 186.842 1123.26 185.369 1123.26 183.552C1123.26 181.736 1124.73 180.263 1126.55 180.263C1128.37 180.263 1129.84 181.736 1129.84 183.552Z" fill="white"/>
<path d="M1143 183.552C1143 185.369 1141.53 186.842 1139.71 186.842C1137.89 186.842 1136.42 185.369 1136.42 183.552C1136.42 181.736 1137.89 180.263 1139.71 180.263C1141.53 180.263 1143 181.736 1143 183.552Z" fill="white"/>
<path d="M1024.58 196.71C1024.58 198.527 1023.11 200 1021.29 200C1019.47 200 1018 198.527 1018 196.71C1018 194.894 1019.47 193.421 1021.29 193.421C1023.11 193.421 1024.58 194.894 1024.58 196.71Z" fill="white"/>
<path d="M1037.74 196.71C1037.74 198.527 1036.26 200 1034.45 200C1032.63 200 1031.16 198.527 1031.16 196.71C1031.16 194.894 1032.63 193.421 1034.45 193.421C1036.26 193.421 1037.74 194.894 1037.74 196.71Z" fill="white"/>
<path d="M1090.37 196.71C1090.37 198.527 1088.9 200 1087.08 200C1085.26 200 1083.79 198.527 1083.79 196.71C1083.79 194.894 1085.26 193.421 1087.08 193.421C1088.9 193.421 1090.37 194.894 1090.37 196.71Z" fill="white"/>
<path d="M1103.53 196.71C1103.53 198.527 1102.05 200 1100.24 200C1098.42 200 1096.95 198.527 1096.95 196.71C1096.95 194.894 1098.42 193.421 1100.24 193.421C1102.05 193.421 1103.53 194.894 1103.53 196.71Z" fill="white"/>
<path d="M1116.68 196.71C1116.68 198.527 1115.21 200 1113.39 200C1111.58 200 1110.1 198.527 1110.1 196.71C1110.1 194.894 1111.58 193.421 1113.39 193.421C1115.21 193.421 1116.68 194.894 1116.68 196.71Z" fill="white"/>
<path d="M1129.84 196.71C1129.84 198.527 1128.37 200 1126.55 200C1124.73 200 1123.26 198.527 1123.26 196.71C1123.26 194.894 1124.73 193.421 1126.55 193.421C1128.37 193.421 1129.84 194.894 1129.84 196.71Z" fill="white"/>
<path d="M1143 196.71C1143 198.527 1141.53 200 1139.71 200C1137.89 200 1136.42 198.527 1136.42 196.71C1136.42 194.894 1137.89 193.421 1139.71 193.421C1141.53 193.421 1143 194.894 1143 196.71Z" fill="white"/>
</g>
<path opacity="0.2" d="M1114 315.25L1235.27 245L1356.55 315.25V455.75L1235.27 526L1114 455.75V315.25ZM1360 317.248C1359.99 317.247 1359.99 317.245 1359.99 317.244L1360 317.248Z" stroke="white" stroke-width="10"/>
<path opacity="0.1" d="M1064 419.5L1127 383L1190 419.5V492.5L1127 529L1064 492.5V419.5Z" stroke="white" stroke-width="10"/>
<path opacity="0.1" d="M808.001 474C907.412 474 988.001 393.411 988.001 294C988.001 194.589 907.412 114 808.001 114C708.59 114 628.001 194.589 628.001 294C628.001 393.411 708.59 474 808.001 474Z" fill="#3696DE"/>
<path opacity="0.1" d="M808.001 474C907.412 474 988.001 393.411 988.001 294C988.001 194.589 907.412 114 808.001 114C708.59 114 628.001 194.589 628.001 294C628.001 393.411 708.59 474 808.001 474Z" fill="white"/>
<path opacity="0.2" d="M132.155 201.452L27.4494 141L-77.2559 201.452V322.355L27.4494 382.807L132.155 322.355V201.452Z" stroke="#3696DE" stroke-width="10"/>
<path opacity="0.1" d="M120.827 291L66.592 322.313V384.938L120.827 416.25L175.062 384.938V322.313L120.827 291ZM118.827 417.405L118.833 417.402C118.831 417.403 118.829 417.404 118.827 417.405Z" stroke="#3696DE" stroke-width="10"/>
<path opacity="0.1" d="M335.5 86.3301C334.572 85.7942 333.428 85.7942 332.5 86.3301L290.869 110.366C289.94 110.902 289.369 111.892 289.369 112.964V161.036C289.369 162.108 289.94 163.098 290.869 163.634L332.5 187.67C333.428 188.206 334.572 188.206 335.5 187.67L377.131 163.634C378.06 163.098 378.631 162.108 378.631 161.036V112.964C378.631 111.892 378.06 110.902 377.131 110.366L335.5 86.3301Z" stroke="#3696DE" stroke-width="6"/>
<path opacity="0.08" d="M509.844 294.402C508.916 293.866 507.773 293.866 506.844 294.402L434.902 335.938C433.974 336.474 433.402 337.464 433.402 338.536V421.608C433.402 422.68 433.974 423.67 434.902 424.206L506.844 465.742C507.773 466.278 508.916 466.278 509.844 465.742L581.787 424.206C582.715 423.67 583.287 422.68 583.287 421.608V338.536C583.287 337.464 582.715 336.474 581.787 335.938L509.844 294.402Z" stroke="#3696DE" stroke-width="6"/>
</g>
<defs>
<clipPath id="clip0_26_7">
<rect width="1280" height="936" fill="white"/>
</clipPath>
</defs>
</svg>
