<?xml version="1.0" encoding="utf-8"?>
<!-- Generator: Adobe Illustrator 17.0.0, SVG Export Plug-In . SVG Version: 6.00 Build 0)  -->
<!DOCTYPE svg PUBLIC "-//W3C//DTD SVG 1.1//EN" "http://www.w3.org/Graphics/SVG/1.1/DTD/svg11.dtd">
<svg version="1.1" id="Layer_2" xmlns="http://www.w3.org/2000/svg" xmlns:xlink="http://www.w3.org/1999/xlink" x="0px" y="0px"
	 width="174px" height="200px" viewBox="0 0 174 200" enable-background="new 0 0 174 200" xml:space="preserve">
<g>
	<polygon fill="#FFFFFF" points="173.603,150 87,200 0.397,150 0.397,50 87,0 173.603,50 	"/>
	<path fill="none" stroke="#3696de" stroke-width="6" stroke-linecap="round" stroke-linejoin="round" stroke-miterlimit="10" d="
		M50.611,65.153c0,0,16.288-16.288,37.775-16.288s36.389,16.288,36.389,16.288"/>
	<path fill="none" stroke="#3696de" stroke-width="6" stroke-linecap="round" stroke-linejoin="round" stroke-miterlimit="10" d="
		M124.775,136.37c0,0-16.288,16.288-37.775,16.288S50.611,136.37,50.611,136.37"/>
	<path fill="none" stroke="#3696de" stroke-width="6" stroke-linecap="round" stroke-linejoin="round" stroke-miterlimit="10" d="
		M64.82,120.949c0,0,9.13,13.298,21.994,13.342c11.036,0.038,15.243-3.509,18.73-7.104c8.849-9.126,35.866-36.042,35.866-36.042"/>
	<path fill="none" stroke="#3696de" stroke-width="6" stroke-linecap="round" stroke-linejoin="round" stroke-miterlimit="10" d="
		M108.66,80.091c0,0-9.159-14.209-21.994-13.342s-18.73,7.104-18.73,7.104L32.07,109.895"/>
	<path fill="none" stroke="#3696de" stroke-width="6" stroke-linecap="round" stroke-linejoin="round" stroke-miterlimit="10" d="
		M76.777,109.895c0,0,4.332,6.029,10.917,6.029c6.585,0,15.422-10.397,15.422-10.397l31.19-31.537"/>
	<path fill="none" stroke="#3696de" stroke-width="6" stroke-linecap="round" stroke-linejoin="round" stroke-miterlimit="10" d="
		M97.85,90.589c0,0-4.332-6.029-10.917-6.029c-6.585,0-15.422,10.397-15.422,10.397l-31.19,31.537"/>
	
		<line fill="none" stroke="#3696de" stroke-width="6" stroke-linecap="round" stroke-linejoin="round" stroke-miterlimit="10" x1="103.115" y1="105.527" x2="134.305" y2="73.99"/>
</g>
</svg>
